<svg width="19" height="20" viewBox="0 0 19 20" fill="none" xmlns="http://www.w3.org/2000/svg">
<path fill-rule="evenodd" clip-rule="evenodd" d="M3.33333 0.833496H12.0118L16.6667 5.48832V10.0002H18.3333V11.6668H16.6667H15H3.33333H1.66667H0V10.0002H1.66667V2.50016C1.66667 1.57969 2.41286 0.833496 3.33333 0.833496ZM3.33333 10.0002H15V7.50016H11.6667C10.7462 7.50016 10 6.75397 10 5.8335V2.50016H3.33333V10.0002ZM15 13.3335H16.6667V17.5002C16.6667 18.4206 15.9205 19.1668 15 19.1668H3.33333C2.41286 19.1668 1.66667 18.4206 1.66667 17.5002V13.3335H3.33333V17.5002H15V13.3335ZM11.6667 2.84534V5.8335H14.6548L11.6667 2.84534Z" fill="#3F40F0"/>
</svg>
