<svg width="21" height="22" viewBox="0 0 21 22" fill="none" xmlns="http://www.w3.org/2000/svg">
<path fill-rule="evenodd" clip-rule="evenodd" d="M0 10.9998C0 16.5687 4.51446 21.0832 10.0833 21.0832C15.6522 21.0832 20.1667 16.5687 20.1667 10.9998C20.1667 10.3738 20.1096 9.76107 20.0004 9.16659H18.1295C18.2633 9.75623 18.334 10.3699 18.334 11C18.334 12.7456 17.7918 14.3646 16.8667 15.6978C15.8351 14.3349 13.4108 13.75 10.0837 13.75C6.75692 13.75 4.33273 14.3348 3.30099 15.6974C2.37604 14.3643 1.83398 12.7455 1.83398 11C1.83398 6.44365 5.52764 2.75 10.084 2.75C11.401 2.75 12.6459 3.05859 13.7503 3.6074V1.60403C12.6138 1.16014 11.377 0.916504 10.0833 0.916504C4.51446 0.916504 0 5.43097 0 10.9998ZM10.0837 15.5833C13.3559 15.5833 15.2833 16.2135 15.5514 17.1783C14.0958 18.4674 12.1813 19.25 10.084 19.25C7.98649 19.25 6.07183 18.4673 4.61615 17.1779C4.88464 16.2133 6.812 15.5833 10.0837 15.5833ZM6.41763 9.16667C6.41763 7.10945 7.86514 5.5 10.0843 5.5C12.2973 5.5 13.751 7.26145 13.751 9.35C13.751 12.3563 12.1175 13.75 10.0843 13.75C8.03175 13.75 6.41763 12.3084 6.41763 9.16667ZM10.0837 11.9167C9.00037 11.9167 8.25034 11.2469 8.25034 9.16674C8.25034 8.08125 8.92293 7.33341 10.0837 7.33341C11.198 7.33341 11.917 8.20463 11.917 9.35008C11.917 11.2736 11.1632 11.9167 10.0837 11.9167Z" fill="#219653"/>
</svg>
