<svg width="16" height="20" viewBox="0 0 16 20" fill="none" xmlns="http://www.w3.org/2000/svg">
<path fill-rule="evenodd" clip-rule="evenodd" d="M2.16667 0.833252H10.8452L15.5 5.48807V17.4999C15.5 18.4204 14.7538 19.1666 13.8333 19.1666H2.16667C1.24619 19.1666 0.5 18.4204 0.5 17.4999V2.49992C0.5 1.57944 1.24619 0.833252 2.16667 0.833252ZM8.83333 2.49992H2.16667V17.4999H13.8333V7.49992H10.5C9.57953 7.49992 8.83333 6.75373 8.83333 5.83325V2.49992ZM10.5 2.8451V5.83325H13.4882L10.5 2.8451ZM4.66667 14.1666V12.4999H9.66667V14.1666H4.66667ZM4.66667 9.16659V10.8333H11.3333V9.16659H4.66667Z" fill="#3F40F0"/>
</svg>
