<svg width="17" height="20" viewBox="0 0 17 20" fill="none" xmlns="http://www.w3.org/2000/svg">
<rect width="17" height="20" fill="#E5E5E5"/>
<g clip-path="url(#clip0)">
<rect width="1920" height="1080" transform="translate(-1845 -70)" fill="#F3F4F8"/>
<g filter="url(#filter0_d)">
<rect x="-1802" y="-10" width="1835" height="80" rx="5" fill="white"/>
</g>
<path fill-rule="evenodd" clip-rule="evenodd" d="M11.2856 0H1.81818C0.814028 0 0 0.814028 0 1.81818V18.1818C0 19.186 0.814028 20 1.81818 20H14.5455C15.5496 20 16.3636 19.186 16.3636 18.1818V5.07799L11.2856 0ZM1.81818 1.81818H9.09091V5.45455C9.09091 6.4587 9.90494 7.27273 10.9091 7.27273H14.5455V18.1818H1.81818V1.81818ZM10.9091 5.45455V2.19474L14.1689 5.45455H10.9091ZM7.27273 8.18182V10.9091H4.54545V12.7273H7.27273V15.4545H9.09091V12.7273H11.8182V10.9091H9.09091V8.18182H7.27273Z" fill="#3F40F0"/>
</g>
<defs>
<filter id="filter0_d" x="-1806" y="-13" width="1843" height="88" filterUnits="userSpaceOnUse" color-interpolation-filters="sRGB">
<feFlood flood-opacity="0" result="BackgroundImageFix"/>
<feColorMatrix in="SourceAlpha" type="matrix" values="0 0 0 0 0 0 0 0 0 0 0 0 0 0 0 0 0 0 127 0"/>
<feOffset dy="1"/>
<feGaussianBlur stdDeviation="2"/>
<feColorMatrix type="matrix" values="0 0 0 0 0 0 0 0 0 0 0 0 0 0 0 0 0 0 0.15 0"/>
<feBlend mode="normal" in2="BackgroundImageFix" result="effect1_dropShadow"/>
<feBlend mode="normal" in="SourceGraphic" in2="effect1_dropShadow" result="shape"/>
</filter>
<clipPath id="clip0">
<rect width="1920" height="1080" fill="white" transform="translate(-1845 -70)"/>
</clipPath>
</defs>
</svg>
