<svg width="15" height="15" viewBox="0 0 15 15" fill="none" xmlns="http://www.w3.org/2000/svg">
<path fill-rule="evenodd" clip-rule="evenodd" d="M12.8838 0.54255C12.54 0.196059 12.0693 0 11.5783 0C11.0878 0 10.6176 0.195616 10.2719 0.543454L3.99542 6.81985C3.43457 7.31402 3.06691 8.04937 3.00302 8.8402L3.00058 11.2514V12.0014H6.10142C6.95211 11.943 7.69468 11.5718 8.21852 10.9675L14.4594 4.72923C14.8057 4.38298 15.0002 3.91337 15.0002 3.4237C15.0002 2.93403 14.8057 2.46442 14.4594 2.11817L12.8838 0.54255ZM14.9995 13.4996V8.24975H13.4995V13.4996H1.49995V1.49997H6.74976V1.40267e-05H1.49995C0.671549 1.40267e-05 0 0.671566 0 1.49997V13.4996C0 14.328 0.671549 14.9995 1.49995 14.9995H13.4995C14.3279 14.9995 14.9995 14.328 14.9995 13.4996ZM6.04824 10.5039C6.44889 10.4755 6.82184 10.2891 7.12131 9.94651L11.6679 5.39988L9.60228 3.33411L5.02237 7.91255C4.71851 8.18129 4.53054 8.55726 4.50031 8.9012V10.5025L6.04824 10.5039ZM10.6631 2.27365L12.7285 4.33925L13.3986 3.66921C13.4635 3.60425 13.5 3.51616 13.5 3.42431C13.5 3.33245 13.4635 3.24436 13.3986 3.17941L11.8209 1.6017C11.7567 1.53697 11.6692 1.50056 11.5781 1.50056C11.4869 1.50056 11.3995 1.53697 11.3352 1.6017L10.6631 2.27365Z" fill="#3F40F0"/>
</svg>
