<svg width="22" height="22" viewBox="0 0 22 22" fill="none" xmlns="http://www.w3.org/2000/svg">
<rect x="15.584" y="4.5835" width="5.5" height="1.83333" fill="#219653"/>
<rect x="19.25" y="2.75" width="5.5" height="1.83333" transform="rotate(90 19.25 2.75)" fill="#219653"/>
<path fill-rule="evenodd" clip-rule="evenodd" d="M0.916016 10.9998C0.916016 16.5687 5.43048 21.0832 10.9993 21.0832C16.5682 21.0832 21.0827 16.5687 21.0827 10.9998C21.0827 10.3738 21.0256 9.76107 20.9164 9.16659H19.0456C19.1794 9.75623 19.25 10.3699 19.25 11C19.25 12.7456 18.7078 14.3646 17.7827 15.6978C16.7512 14.3349 14.3268 13.75 10.9997 13.75C7.67294 13.75 5.24874 14.3348 4.217 15.6974C3.29205 14.3643 2.75 12.7455 2.75 11C2.75 6.44365 6.44365 2.75 11 2.75C12.317 2.75 13.5619 3.05859 14.6664 3.6074V1.60403C13.5298 1.16014 12.293 0.916504 10.9993 0.916504C5.43048 0.916504 0.916016 5.43097 0.916016 10.9998ZM10.9997 15.5833C14.2719 15.5833 16.1993 16.2135 16.4674 17.1783C15.0118 18.4674 13.0973 19.25 11 19.25C8.90251 19.25 6.98784 18.4673 5.53216 17.1779C5.80066 16.2133 7.72802 15.5833 10.9997 15.5833ZM7.33364 9.16667C7.33364 7.10945 8.78115 5.5 11.0003 5.5C13.2133 5.5 14.667 7.26145 14.667 9.35C14.667 12.3563 13.0336 13.75 11.0003 13.75C8.94777 13.75 7.33364 12.3084 7.33364 9.16667ZM10.9997 11.9167C9.91638 11.9167 9.16636 11.2469 9.16636 9.16674C9.16636 8.08125 9.83895 7.33341 10.9997 7.33341C12.114 7.33341 12.833 8.20463 12.833 9.35008C12.833 11.2736 12.0793 11.9167 10.9997 11.9167Z" fill="#219653"/>
</svg>
