<svg width="20" height="20" viewBox="0 0 20 20" fill="none" xmlns="http://www.w3.org/2000/svg">
<g id="24 / file / file-text">
<path id="icon" fill-rule="evenodd" clip-rule="evenodd" d="M4.16667 0.833252H12.8452L17.5 5.48807V17.4999C17.5 18.4204 16.7538 19.1666 15.8333 19.1666H4.16667C3.24619 19.1666 2.5 18.4204 2.5 17.4999V2.49992C2.5 1.57944 3.24619 0.833252 4.16667 0.833252ZM10.8333 2.49992H4.16667V17.4999H15.8333V7.49992H12.5C11.5795 7.49992 10.8333 6.75373 10.8333 5.83325V2.49992ZM12.5 2.8451V5.83325H15.4882L12.5 2.8451ZM6.66667 14.1666V12.4999H11.6667V14.1666H6.66667ZM6.66667 9.16659V10.8333H13.3333V9.16659H6.66667Z" fill="#3F40F0"/>
</g>
</svg>
